<svg xmlns="http://www.w3.org/2000/svg" version="1.1" xmlns:xlink="http://www.w3.org/1999/xlink" xmlns:svgjs="http://svgjs.dev/svgjs" width="2000" height="262" viewBox="0 0 2000 262"><g transform="matrix(1,0,0,1,-1.2121212121212466,-0.8723306544201819)"><svg viewBox="0 0 396 52" data-background-color="#ffffff" preserveAspectRatio="xMidYMid meet" height="262" width="2000" xmlns="http://www.w3.org/2000/svg" xmlns:xlink="http://www.w3.org/1999/xlink"><g id="tight-bounds" transform="matrix(1,0,0,1,0.2400000000000091,0.17313432835820208)"><svg viewBox="0 0 395.52 51.65373134328358" height="51.65373134328358" width="395.52"><g><svg viewBox="0 0 395.52 51.65373134328358" height="51.65373134328358" width="395.52"><g><svg viewBox="0 0 395.52 51.65373134328358" height="51.65373134328358" width="395.52"><g><svg viewBox="0 0 395.52 51.65373134328358" height="51.65373134328358" width="395.52"><g id="textblocktransform"><svg viewBox="0 0 395.52 51.65373134328358" height="51.65373134328358" width="395.52" id="textblock"><g><svg viewBox="0 0 395.52 51.65373134328358" height="51.65373134328358" width="395.52"><g transform="matrix(1,0,0,1,0,0)"><svg width="395.52" viewBox="1.7999999999999998 -28 214.38 28" height="51.65373134328358" data-palette-color="#ffffff"><path d="M16.5-4L18-4Q18.2-3.2 18.2-2L18.2-2Q18.2-0.85 18 0L18 0 14 0Q13.8-0.85 13.8-2L13.8-2Q13.8-3.2 14-4L14-4 12.5-4Q12.3-4.85 12.3-6L12.3-6Q12.3-7.2 12.5-8L12.5-8 11-8Q10.8-8.85 10.8-10L10.8-10Q10.8-11.2 11-12L11-12 6-12Q6.2-11.2 6.2-10L6.2-10Q6.2-8.85 6-8L6-8Q6.2-7.2 6.2-6L6.2-6Q6.2-4.85 6-4L6-4Q6.2-3.2 6.2-2L6.2-2Q6.2-0.85 6 0L6 0 2 0Q1.8-0.85 1.8-2L1.8-2Q1.8-3.2 2-4L2-4Q1.8-4.85 1.8-6L1.8-6Q1.8-7.2 2-8L2-8Q1.8-8.85 1.8-10L1.8-10Q1.8-11.2 2-12L2-12Q1.8-12.85 1.8-14L1.8-14Q1.8-15.2 2-16L2-16Q1.8-16.85 1.8-18L1.8-18Q1.8-19.2 2-20L2-20Q1.8-20.85 1.8-22L1.8-22Q1.8-23.2 2-24L2-24Q1.8-24.85 1.8-26L1.8-26Q1.8-27.2 2-28L2-28 16-28Q16.2-27.2 16.2-26L16.2-26Q16.2-24.85 16-24L16-24 18-24Q18.2-23.2 18.2-22L18.2-22Q18.2-20.85 18-20L18-20 17-20Q17.2-19.2 17.2-18L17.2-18Q17.2-16.85 17-16L17-16 14-16Q14.2-15.2 14.2-14L14.2-14Q14.2-12.85 14-12L14-12 15-12Q15.2-11.2 15.2-10L15.2-10Q15.2-8.85 15-8L15-8 16.5-8Q16.7-7.2 16.7-6L16.7-6Q16.7-4.85 16.5-4L16.5-4ZM13-16Q12.8-16.85 12.8-18L12.8-18Q12.8-19.2 13-20L13-20Q12.8-20.85 12.8-22L12.8-22Q12.8-23.2 13-24L13-24 6-24Q6.2-23.2 6.2-22L6.2-22Q6.2-20.85 6-20L6-20Q6.2-19.2 6.2-18L6.2-18Q6.2-16.85 6-16L6-16 13-16ZM38.2-6Q38.2-4.85 38-4L38-4Q38.2-3.2 38.2-2L38.2-2Q38.2-0.85 38 0L38 0 34 0Q33.8-0.85 33.8-2L33.8-2Q33.8-3.2 34-4L34-4Q33.8-4.85 33.8-6L33.8-6Q33.8-7.2 34-8L34-8 26-8Q26.2-7.2 26.2-6L26.2-6Q26.2-4.85 26-4L26-4Q26.2-3.2 26.2-2L26.2-2Q26.2-0.85 26 0L26 0 22 0Q21.8-0.85 21.8-2L21.8-2Q21.8-3.2 22-4L22-4Q21.8-4.85 21.8-6L21.8-6Q21.8-7.2 22-8L22-8 23.5-8Q23.3-8.85 23.3-10L23.3-10Q23.3-11.2 23.5-12L23.5-12Q23.3-12.85 23.3-14L23.3-14Q23.3-15.2 23.5-16L23.5-16 24.5-16Q24.3-16.85 24.3-18L24.3-18Q24.3-19.2 24.5-20L24.5-20 26-20Q25.8-20.85 25.8-22L25.8-22Q25.8-23.2 26-24L26-24 27-24Q26.8-24.85 26.8-26L26.8-26Q26.8-27.2 27-28L27-28 33-28Q33.2-27.2 33.2-26L33.2-26Q33.2-24.85 33-24L33-24 34-24Q34.2-23.2 34.2-22L34.2-22Q34.2-20.85 34-20L34-20 35.5-20Q35.7-19.2 35.7-18L35.7-18Q35.7-16.85 35.5-16L35.5-16 36.5-16Q36.7-15.2 36.7-14L36.7-14Q36.7-12.85 36.5-12L36.5-12Q36.7-11.2 36.7-10L36.7-10Q36.7-8.85 36.5-8L36.5-8 38-8Q38.2-7.2 38.2-6L38.2-6ZM32.5-12Q32.3-12.85 32.3-14L32.3-14Q32.3-15.2 32.5-16L32.5-16 31.5-16Q31.3-16.85 31.3-18L31.3-18Q31.3-19.2 31.5-20L31.5-20 28.5-20Q28.7-19.2 28.7-18L28.7-18Q28.7-16.85 28.5-16L28.5-16 27.5-16Q27.7-15.2 27.7-14L27.7-14Q27.7-12.85 27.5-12L27.5-12 32.5-12ZM57.2-26Q57.2-24.85 57-24L57-24 54-24Q54.2-23.2 54.2-22L54.2-22Q54.2-20.85 54-20L54-20Q54.2-19.2 54.2-18L54.2-18Q54.2-16.85 54-16L54-16Q54.2-15.2 54.2-14L54.2-14Q54.2-12.85 54-12L54-12Q54.2-11.2 54.2-10L54.2-10Q54.2-8.85 54-8L54-8Q54.2-7.2 54.2-6L54.2-6Q54.2-4.85 54-4L54-4 52-4Q52.2-3.2 52.2-2L52.2-2Q52.2-0.85 52 0L52 0 44 0Q43.8-0.85 43.8-2L43.8-2Q43.8-3.2 44-4L44-4 42-4Q41.8-4.85 41.8-6L41.8-6Q41.8-7.2 42-8L42-8 46-8Q46.2-7.2 46.2-6L46.2-6Q46.2-4.85 46-4L46-4 50-4Q49.8-4.85 49.8-6L49.8-6Q49.8-7.2 50-8L50-8Q49.8-8.85 49.8-10L49.8-10Q49.8-11.2 50-12L50-12Q49.8-12.85 49.8-14L49.8-14Q49.8-15.2 50-16L50-16Q49.8-16.85 49.8-18L49.8-18Q49.8-19.2 50-20L50-20Q49.8-20.85 49.8-22L49.8-22Q49.8-23.2 50-24L50-24 47-24Q46.8-24.85 46.8-26L46.8-26Q46.8-27.2 47-28L47-28 57-28Q57.2-27.2 57.2-26L57.2-26ZM75.99-12L67.99-12Q68.19-11.2 68.19-10L68.19-10Q68.19-8.85 67.99-8L67.99-8Q68.19-7.2 68.19-6L68.19-6Q68.19-4.85 67.99-4L67.99-4 75.99-4Q76.19-3.2 76.19-2L76.19-2Q76.19-0.85 75.99 0L75.99 0 63.99 0Q63.79-0.85 63.79-2L63.79-2Q63.79-3.2 63.99-4L63.99-4Q63.79-4.85 63.79-6L63.79-6Q63.79-7.2 63.99-8L63.99-8Q63.79-8.85 63.79-10L63.79-10Q63.79-11.2 63.99-12L63.99-12Q63.79-12.85 63.79-14L63.79-14Q63.79-15.2 63.99-16L63.99-16Q63.79-16.85 63.79-18L63.79-18Q63.79-19.2 63.99-20L63.99-20Q63.79-20.85 63.79-22L63.79-22Q63.79-23.2 63.99-24L63.99-24Q63.79-24.85 63.79-26L63.79-26Q63.79-27.2 63.99-28L63.99-28 75.99-28Q76.19-27.2 76.19-26L76.19-26Q76.19-24.85 75.99-24L75.99-24 67.99-24Q68.19-23.2 68.19-22L68.19-22Q68.19-20.85 67.99-20L67.99-20Q68.19-19.2 68.19-18L68.19-18Q68.19-16.85 67.99-16L67.99-16 75.99-16Q76.19-15.2 76.19-14L76.19-14Q76.19-12.85 75.99-12L75.99-12ZM97.99-12Q98.19-11.2 98.19-10L98.19-10Q98.19-8.85 97.99-8L97.99-8Q98.19-7.2 98.19-6L98.19-6Q98.19-4.85 97.99-4L97.99-4 95.99-4Q96.19-3.2 96.19-2L96.19-2Q96.19-0.85 95.99 0L95.99 0 83.99 0Q83.79-0.85 83.79-2L83.79-2Q83.79-3.2 83.99-4L83.99-4 81.99-4Q81.79-4.85 81.79-6L81.79-6Q81.79-7.2 81.99-8L81.99-8 85.99-8Q86.19-7.2 86.19-6L86.19-6Q86.19-4.85 85.99-4L85.99-4 93.99-4Q93.79-4.85 93.79-6L93.79-6Q93.79-7.2 93.99-8L93.99-8Q93.79-8.85 93.79-10L93.79-10Q93.79-11.2 93.99-12L93.99-12 83.99-12Q83.79-12.85 83.79-14L83.79-14Q83.79-15.2 83.99-16L83.99-16 81.99-16Q81.79-16.85 81.79-18L81.79-18Q81.79-19.2 81.99-20L81.99-20Q81.79-20.85 81.79-22L81.79-22Q81.79-23.2 81.99-24L81.99-24 83.99-24Q83.79-24.85 83.79-26L83.79-26Q83.79-27.2 83.99-28L83.99-28 95.99-28Q96.19-27.2 96.19-26L96.19-26Q96.19-24.85 95.99-24L95.99-24 97.99-24Q98.19-23.2 98.19-22L98.19-22Q98.19-20.85 97.99-20L97.99-20 93.99-20Q93.79-20.85 93.79-22L93.79-22Q93.79-23.2 93.99-24L93.99-24 85.99-24Q86.19-23.2 86.19-22L86.19-22Q86.19-20.85 85.99-20L85.99-20Q86.19-19.2 86.19-18L86.19-18Q86.19-16.85 85.99-16L85.99-16 95.99-16Q96.19-15.2 96.19-14L96.19-14Q96.19-12.85 95.99-12L95.99-12 97.99-12ZM117.99-24Q118.19-23.2 118.19-22L118.19-22Q118.19-20.85 117.99-20L117.99-20Q118.19-19.2 118.19-18L118.19-18Q118.19-16.85 117.99-16L117.99-16Q118.19-15.2 118.19-14L118.19-14Q118.19-12.85 117.99-12L117.99-12Q118.19-11.2 118.19-10L118.19-10Q118.19-8.85 117.99-8L117.99-8Q118.19-7.2 118.19-6L118.19-6Q118.19-4.85 117.99-4L117.99-4Q118.19-3.2 118.19-2L118.19-2Q118.19-0.85 117.99 0L117.99 0 113.99 0Q113.79-0.85 113.79-2L113.79-2Q113.79-3.2 113.99-4L113.99-4Q113.79-4.85 113.79-6L113.79-6Q113.79-7.2 113.99-8L113.99-8Q113.79-8.85 113.79-10L113.79-10Q113.79-11.2 113.99-12L113.99-12 105.99-12Q106.19-11.2 106.19-10L106.19-10Q106.19-8.85 105.99-8L105.99-8Q106.19-7.2 106.19-6L106.19-6Q106.19-4.85 105.99-4L105.99-4Q106.19-3.2 106.19-2L106.19-2Q106.19-0.85 105.99 0L105.99 0 101.99 0Q101.79-0.85 101.79-2L101.79-2Q101.79-3.2 101.99-4L101.99-4Q101.79-4.85 101.79-6L101.79-6Q101.79-7.2 101.99-8L101.99-8Q101.79-8.85 101.79-10L101.79-10Q101.79-11.2 101.99-12L101.99-12Q101.79-12.85 101.79-14L101.79-14Q101.79-15.2 101.99-16L101.99-16Q101.79-16.85 101.79-18L101.79-18Q101.79-19.2 101.99-20L101.99-20Q101.79-20.85 101.79-22L101.79-22Q101.79-23.2 101.99-24L101.99-24Q101.79-24.85 101.79-26L101.79-26Q101.79-27.2 101.99-28L101.99-28 105.99-28Q106.19-27.2 106.19-26L106.19-26Q106.19-24.85 105.99-24L105.99-24Q106.19-23.2 106.19-22L106.19-22Q106.19-20.85 105.99-20L105.99-20Q106.19-19.2 106.19-18L106.19-18Q106.19-16.85 105.99-16L105.99-16 113.99-16Q113.79-16.85 113.79-18L113.79-18Q113.79-19.2 113.99-20L113.99-20Q113.79-20.85 113.79-22L113.79-22Q113.79-23.2 113.99-24L113.99-24Q113.79-24.85 113.79-26L113.79-26Q113.79-27.2 113.99-28L113.99-28 117.99-28Q118.19-27.2 118.19-26L118.19-26Q118.19-24.85 117.99-24L117.99-24ZM158.18-6Q158.18-4.85 157.98-4L157.98-4Q158.18-3.2 158.18-2L158.18-2Q158.18-0.85 157.98 0L157.98 0 153.98 0Q153.78-0.85 153.78-2L153.78-2Q153.78-3.2 153.98-4L153.98-4Q153.78-4.85 153.78-6L153.78-6Q153.78-7.2 153.98-8L153.98-8 145.98-8Q146.18-7.2 146.18-6L146.18-6Q146.18-4.85 145.98-4L145.98-4Q146.18-3.2 146.18-2L146.18-2Q146.18-0.85 145.98 0L145.98 0 141.98 0Q141.78-0.85 141.78-2L141.78-2Q141.78-3.2 141.98-4L141.98-4Q141.78-4.85 141.78-6L141.78-6Q141.78-7.2 141.98-8L141.98-8 143.48-8Q143.28-8.85 143.28-10L143.28-10Q143.28-11.2 143.48-12L143.48-12Q143.28-12.85 143.28-14L143.28-14Q143.28-15.2 143.48-16L143.48-16 144.48-16Q144.28-16.85 144.28-18L144.28-18Q144.28-19.2 144.48-20L144.48-20 145.98-20Q145.78-20.85 145.78-22L145.78-22Q145.78-23.2 145.98-24L145.98-24 146.98-24Q146.78-24.85 146.78-26L146.78-26Q146.78-27.2 146.98-28L146.98-28 152.98-28Q153.18-27.2 153.18-26L153.18-26Q153.18-24.85 152.98-24L152.98-24 153.98-24Q154.18-23.2 154.18-22L154.18-22Q154.18-20.85 153.98-20L153.98-20 155.48-20Q155.68-19.2 155.68-18L155.68-18Q155.68-16.85 155.48-16L155.48-16 156.48-16Q156.68-15.2 156.68-14L156.68-14Q156.68-12.85 156.48-12L156.48-12Q156.68-11.2 156.68-10L156.68-10Q156.68-8.85 156.48-8L156.48-8 157.98-8Q158.18-7.2 158.18-6L158.18-6ZM152.48-12Q152.28-12.85 152.28-14L152.28-14Q152.28-15.2 152.48-16L152.48-16 151.48-16Q151.28-16.85 151.28-18L151.28-18Q151.28-19.2 151.48-20L151.48-20 148.48-20Q148.68-19.2 148.68-18L148.68-18Q148.68-16.85 148.48-16L148.48-16 147.48-16Q147.68-15.2 147.68-14L147.68-14Q147.68-12.85 147.48-12L147.48-12 152.48-12ZM177.98-24Q178.18-23.2 178.18-22L178.18-22Q178.18-20.85 177.98-20L177.98-20Q178.18-19.2 178.18-18L178.18-18Q178.18-16.85 177.98-16L177.98-16Q178.18-15.2 178.18-14L178.18-14Q178.18-12.85 177.98-12L177.98-12Q178.18-11.2 178.18-10L178.18-10Q178.18-8.85 177.98-8L177.98-8Q178.18-7.2 178.18-6L178.18-6Q178.18-4.85 177.98-4L177.98-4Q178.18-3.2 178.18-2L178.18-2Q178.18-0.85 177.98 0L177.98 0 173.98 0Q173.78-0.85 173.78-2L173.78-2Q173.78-3.2 173.98-4L173.98-4 171.48-4Q171.28-4.85 171.28-6L171.28-6Q171.28-7.2 171.48-8L171.48-8 169.98-8Q169.78-8.85 169.78-10L169.78-10Q169.78-11.2 169.98-12L169.98-12 167.98-12Q167.78-12.85 167.78-14L167.78-14Q167.78-15.2 167.98-16L167.98-16 165.98-16Q166.18-15.2 166.18-14L166.18-14Q166.18-12.85 165.98-12L165.98-12Q166.18-11.2 166.18-10L166.18-10Q166.18-8.85 165.98-8L165.98-8Q166.18-7.2 166.18-6L166.18-6Q166.18-4.85 165.98-4L165.98-4Q166.18-3.2 166.18-2L166.18-2Q166.18-0.85 165.98 0L165.98 0 161.98 0Q161.78-0.85 161.78-2L161.78-2Q161.78-3.2 161.98-4L161.98-4Q161.78-4.85 161.78-6L161.78-6Q161.78-7.2 161.98-8L161.98-8Q161.78-8.85 161.78-10L161.78-10Q161.78-11.2 161.98-12L161.98-12Q161.78-12.85 161.78-14L161.78-14Q161.78-15.2 161.98-16L161.98-16Q161.78-16.85 161.78-18L161.78-18Q161.78-19.2 161.98-20L161.98-20Q161.78-20.85 161.78-22L161.78-22Q161.78-23.2 161.98-24L161.98-24Q161.78-24.85 161.78-26L161.78-26Q161.78-27.2 161.98-28L161.98-28 166.98-28Q167.18-27.2 167.18-26L167.18-26Q167.18-24.85 166.98-24L166.98-24 168.48-24Q168.68-23.2 168.68-22L168.68-22Q168.68-20.85 168.48-20L168.48-20 169.98-20Q170.18-19.2 170.18-18L170.18-18Q170.18-16.85 169.98-16L169.98-16 171.98-16Q172.18-15.2 172.18-14L172.18-14Q172.18-12.85 171.98-12L171.98-12 173.98-12Q173.78-12.85 173.78-14L173.78-14Q173.78-15.2 173.98-16L173.98-16Q173.78-16.85 173.78-18L173.78-18Q173.78-19.2 173.98-20L173.98-20Q173.78-20.85 173.78-22L173.78-22Q173.78-23.2 173.98-24L173.98-24Q173.78-24.85 173.78-26L173.78-26Q173.78-27.2 173.98-28L173.98-28 177.98-28Q178.18-27.2 178.18-26L178.18-26Q178.18-24.85 177.98-24L177.98-24ZM197.98-16Q198.18-15.2 198.18-14L198.18-14Q198.18-12.85 197.98-12L197.98-12Q198.18-11.2 198.18-10L198.18-10Q198.18-8.85 197.98-8L197.98-8 195.98-8Q196.18-7.2 196.18-6L196.18-6Q196.18-4.85 195.98-4L195.98-4 193.98-4Q194.18-3.2 194.18-2L194.18-2Q194.18-0.85 193.98 0L193.98 0 181.98 0Q181.78-0.85 181.78-2L181.78-2Q181.78-3.2 181.98-4L181.98-4Q181.78-4.85 181.78-6L181.78-6Q181.78-7.2 181.98-8L181.98-8Q181.78-8.85 181.78-10L181.78-10Q181.78-11.2 181.98-12L181.98-12Q181.78-12.85 181.78-14L181.78-14Q181.78-15.2 181.98-16L181.98-16Q181.78-16.85 181.78-18L181.78-18Q181.78-19.2 181.98-20L181.98-20Q181.78-20.85 181.78-22L181.78-22Q181.78-23.2 181.98-24L181.98-24Q181.78-24.85 181.78-26L181.78-26Q181.78-27.2 181.98-28L181.98-28 193.98-28Q194.18-27.2 194.18-26L194.18-26Q194.18-24.85 193.98-24L193.98-24 195.98-24Q196.18-23.2 196.18-22L196.18-22Q196.18-20.85 195.98-20L195.98-20 197.98-20Q198.18-19.2 198.18-18L198.18-18Q198.18-16.85 197.98-16L197.98-16ZM193.98-8Q193.78-8.85 193.78-10L193.78-10Q193.78-11.2 193.98-12L193.98-12Q193.78-12.85 193.78-14L193.78-14Q193.78-15.2 193.98-16L193.98-16Q193.78-16.85 193.78-18L193.78-18Q193.78-19.2 193.98-20L193.98-20 191.98-20Q191.78-20.85 191.78-22L191.78-22Q191.78-23.2 191.98-24L191.98-24 185.98-24Q186.18-23.2 186.18-22L186.18-22Q186.18-20.85 185.98-20L185.98-20Q186.18-19.2 186.18-18L186.18-18Q186.18-16.85 185.98-16L185.98-16Q186.18-15.2 186.18-14L186.18-14Q186.18-12.85 185.98-12L185.98-12Q186.18-11.2 186.18-10L186.18-10Q186.18-8.85 185.98-8L185.98-8Q186.18-7.2 186.18-6L186.18-6Q186.18-4.85 185.98-4L185.98-4 191.98-4Q191.78-4.85 191.78-6L191.78-6Q191.78-7.2 191.98-8L191.98-8 193.98-8ZM215.98-12L207.98-12Q208.18-11.2 208.18-10L208.18-10Q208.18-8.85 207.98-8L207.98-8Q208.18-7.2 208.18-6L208.18-6Q208.18-4.85 207.98-4L207.98-4 215.98-4Q216.18-3.2 216.18-2L216.18-2Q216.18-0.85 215.98 0L215.98 0 203.98 0Q203.78-0.85 203.78-2L203.78-2Q203.78-3.2 203.98-4L203.98-4Q203.78-4.85 203.78-6L203.78-6Q203.78-7.2 203.98-8L203.98-8Q203.78-8.85 203.78-10L203.78-10Q203.78-11.2 203.98-12L203.98-12Q203.78-12.85 203.78-14L203.78-14Q203.78-15.2 203.98-16L203.98-16Q203.78-16.85 203.78-18L203.78-18Q203.78-19.2 203.98-20L203.98-20Q203.78-20.85 203.78-22L203.78-22Q203.78-23.2 203.98-24L203.98-24Q203.78-24.85 203.78-26L203.78-26Q203.78-27.2 203.98-28L203.98-28 215.98-28Q216.18-27.2 216.18-26L216.18-26Q216.18-24.85 215.98-24L215.98-24 207.98-24Q208.18-23.2 208.18-22L208.18-22Q208.18-20.85 207.98-20L207.98-20Q208.18-19.2 208.18-18L208.18-18Q208.18-16.85 207.98-16L207.98-16 215.98-16Q216.18-15.2 216.18-14L216.18-14Q216.18-12.85 215.98-12L215.98-12Z" opacity="1" transform="matrix(1,0,0,1,0,0)" fill="#ffffff" class="wordmark-text-0" data-fill-palette-color="primary" id="text-0"></path></svg></g></svg></g></svg></g></svg></g></svg></g></svg></g><defs></defs></svg><rect width="395.52" height="51.65373134328358" fill="none" stroke="none" visibility="hidden"></rect></g></svg></g></svg>