<svg xmlns="http://www.w3.org/2000/svg" viewBox="0 0 395.52 134.4286725663717" height="134.4286725663717" width="395.52"><g><svg viewBox="0 0 395.52 134.4286725663717" height="134.4286725663717" width="395.52"><g id="textblocktransform"><svg viewBox="0 0 395.52 134.4286725663717" height="134.4286725663717" width="395.52" id="textblock"><g><svg viewBox="0 0 395.52 134.4286725663717" height="134.4286725663717" width="395.52"><g transform="matrix(1,0,0,1,0,0)"><svg width="395.52" viewBox="0.45 -40.6 180.78 61.45" height="134.4286725663717" data-palette-color="#ffffff"><path d="M8.7 3.65L8.7 3.65Q8.4 3.65 7.65 3.43 6.9 3.2 6.25 2.8 5.6 2.4 5.5 1.9L5.5 1.9Q5.2-0.05 5.2-3.05L5.2-3.05Q5.2-4.95 5.3-7.2 5.4-9.45 5.6-11.75L5.6-11.75 4.3-11.85Q3.8-11.9 3.25-12.5 2.7-13.1 2.35-13.78 2-14.45 2-14.75L2-14.75Q2-15.2 2.63-15.53 3.25-15.85 4.2-16.07 5.15-16.3 6-16.4L6-16.4Q6.4-20.4 6.93-24.03 7.45-27.65 7.85-30.1L7.85-30.1Q7.3-29.4 6.83-28.9 6.35-28.4 6.2-28.4L6.2-28.4 6.2-28.55Q6.4-29 6.85-30.1 7.3-31.2 7.88-32.38 8.45-33.55 9-34.4 9.55-35.25 9.85-35.25L9.85-35.25Q10.5-35.25 11.35-34.63 12.2-34 12.2-33.35L12.2-33.35 12.2-33.2Q11-31 10.18-27.93 9.35-24.85 8.85-21.35 8.35-17.85 8.1-14.3L8.1-14.3 8.9-14.1Q12.1-14.95 15.13-16.55 18.15-18.15 20.9-20.15L20.9-20.15Q23.65-22.15 24.83-23.93 26-25.7 26-27.25L26-27.25Q26-29 24.75-30.5 23.5-32 21.38-33.18 19.25-34.35 16.65-35.2 14.05-36.05 11.33-36.55 8.6-37.05 6.15-37.2L6.15-37.2Q5.85-37.2 4.95-37.23 4.05-37.25 3-37.27 1.95-37.3 1.2-37.43 0.45-37.55 0.45-37.8L0.45-37.8Q0.45-38 1-38.2L1-38.2Q2.9-38.95 4.53-39.28 6.15-39.6 7.6-39.6L7.6-39.6Q8.65-39.6 10.65-39.23 12.65-38.85 15.08-38.1 17.5-37.35 19.98-36.3 22.45-35.25 24.55-33.9 26.65-32.55 27.93-30.95 29.2-29.35 29.2-27.55L29.2-27.55Q29.2-26.05 27.93-24.58 26.65-23.1 24.45-21L24.45-21Q22.85-19.45 20.63-18.05 18.4-16.65 15.98-15.53 13.55-14.4 11.25-13.55L11.25-13.55Q15.55-12.35 19.3-10.63 23.05-8.9 26.65-6.8L26.65-6.8Q27.15-6.5 27.15-6.3L27.15-6.3Q27.15-6.1 26.9-6.1L26.9-6.1Q26.75-6.1 26.65-6.2L26.65-6.2Q25.3-6.7 22.73-7.65 20.15-8.6 17.25-9.5L17.25-9.5Q16.5-9.75 15-10.1 13.5-10.45 11.65-10.83 9.8-11.2 7.95-11.45L7.95-11.45Q7.9-10.55 7.9-9.63 7.9-8.7 7.9-7.85L7.9-7.85Q7.9-6.2 7.98-4.63 8.05-3.05 8.15-1.7L8.15-1.7Q8.4-2.45 8.6-3.3 8.8-4.15 8.85-4.15L8.85-4.15Q8.95-4.15 8.95-3.35L8.95-3.35Q8.95-2.7 8.93-1.65 8.9-0.6 8.88 0.5 8.85 1.6 8.85 2.45L8.85 2.45Q8.85 2.85 8.85 3.18 8.85 3.5 8.9 3.6L8.9 3.6Q8.9 3.65 8.7 3.65ZM38.95-2L38.95-2Q38.4-2 37.75-2.43 37.1-2.85 36.85-3.35L36.85-3.35Q36.85-4.5 37.15-6.5 37.45-8.5 37.82-10.63 38.2-12.75 38.5-14.25L38.5-14.25Q37.6-12.85 36.45-11.2 35.3-9.55 34.1-8.13 32.9-6.7 31.67-5.78 30.45-4.85 29.4-4.85L29.4-4.85Q28.35-4.85 27.75-5.58 27.15-6.3 27.15-7.25L27.15-7.25Q27.15-7.5 27.25-7.9L27.25-7.9Q27.7-10.2 29.02-12.23 30.35-14.25 32.07-15.8 33.8-17.35 35.5-18.25 37.2-19.15 38.4-19.15L38.4-19.15Q39.3-19.15 40.12-18.78 40.95-18.4 41.7-17.55L41.7-17.55Q41.85-17.4 41.85-17.2L41.85-17.2Q41.85-16.95 41.55-16.7L41.55-16.7Q41.2-15.5 40.82-13.83 40.45-12.15 40.12-10.38 39.8-8.6 39.6-7.1 39.4-5.6 39.4-4.8L39.4-4.8Q39.4-4.25 39.55-4.25L39.55-4.25Q39.95-4.25 40.57-5.1 41.2-5.95 41.8-7.05 42.4-8.15 42.87-9 43.35-9.85 43.45-9.85L43.45-9.85Q43.6-9.85 43.6-9.45L43.6-9.45Q43.6-8.6 43.05-7.35 42.5-6.1 41.72-4.88 40.95-3.65 40.17-2.83 39.4-2 38.95-2ZM29.8-6.7L29.8-6.7Q30.5-6.7 31.57-7.5 32.65-8.3 33.82-9.55 35-10.8 36.12-12.2 37.25-13.6 38.07-14.88 38.9-16.15 39.25-16.95L39.25-16.95Q38.25-16.95 36.95-16.23 35.65-15.5 34.3-14.38 32.95-13.25 31.8-11.93 30.65-10.6 29.95-9.35 29.25-8.1 29.25-7.2L29.25-7.2Q29.25-6.7 29.8-6.7ZM45.45-19.7L45.45-19.7Q44.84-19.7 44.39-19.9L44.39-19.9Q44.09-20.05 44.09-20.4L44.09-20.4Q44.09-20.9 44.62-21.65 45.14-22.4 45.92-23 46.7-23.6 47.34-23.6L47.34-23.6Q47.7-23.6 47.7-23.35L47.7-23.35Q47.7-23.15 47.34-22.85L47.34-22.85Q46.8-22.3 46.7-21.55 46.59-20.8 46.42-20.25 46.24-19.7 45.45-19.7ZM38.14 20.85L38.14 20.85Q37.24 20.85 36.8 19.8L36.8 19.8Q38.09 17 39.42 13.8 40.74 10.6 41.97 7.25 43.2 3.9 44.05 0.7L44.05 0.7Q42.64 1.8 41.2 3.1 39.74 4.4 38.45 6.1L38.45 6.1Q36.8 8.15 35.92 10.98 35.05 13.8 35.05 16.2L35.05 16.2Q35.05 19.1 36.24 20.55L36.24 20.55Q36.39 20.7 36.39 20.75L36.39 20.75Q36.39 20.75 36.37 20.78 36.34 20.8 36.3 20.8L36.3 20.8Q36.09 20.8 35.82 20.65 35.55 20.5 35.3 20.2L35.3 20.2Q34.3 19.15 33.82 17.68 33.34 16.2 33.34 14.5L33.34 14.5Q33.34 12.55 34.09 10.55 34.84 8.55 36.3 6.8L36.3 6.8Q38.39 4.25 40.45 2.58 42.49 0.9 44.39-0.7L44.39-0.7Q45.14-3.65 45.45-6.45L45.45-6.45Q45.7-8.65 45.77-10.3 45.84-11.95 45.84-13.2L45.84-13.2Q45.84-14.45 45.74-15.35 45.64-16.25 45.55-17L45.55-17Q45.55-17.05 45.59-17.05L45.59-17.05Q45.84-17.05 46.64-16.45 47.45-15.85 47.55-14.9L47.55-14.9Q47.7-13.4 47.7-11.7L47.7-11.7Q47.7-9.7 47.47-7.5 47.24-5.3 46.84-3L46.84-3Q47.99-4.25 49.12-5.83 50.24-7.4 51.24-9.5L51.24-9.5Q51.55-10.1 51.8-10.1L51.8-10.1Q51.99-10.1 51.99-9.75L51.99-9.75Q51.99-9.2 51.52-8.15 51.05-7.1 50.39-6 49.74-4.9 49.09-4.1L49.09-4.1Q48.55-3.35 47.89-2.7 47.24-2.05 46.55-1.4L46.55-1.4Q45.89 2.1 44.99 5.45 44.09 8.8 43.17 11.6 42.24 14.4 41.52 16.32 40.8 18.25 40.49 18.85L40.49 18.85Q39.89 19.95 39.3 20.4 38.7 20.85 38.14 20.85ZM56.09-0.8L56.09-0.8Q54.39-0.8 53.47-1.9 52.54-3 52.22-4.73 51.89-6.45 51.89-8.2L51.89-8.2Q51.89-9.4 51.99-10.48 52.09-11.55 52.19-12.35L52.19-12.35Q52.44-14.4 52.84-16.3 53.24-18.2 53.62-19.55 53.99-20.9 54.09-21.3L54.09-21.3Q54.29-22 54.84-22L54.84-22Q55.39-22 56.09-21.28 56.79-20.55 57.09-20.1L57.09-20.1Q58.24-19.75 59.34-19.28 60.44-18.8 61.17-18.25 61.89-17.7 61.89-17.05L61.89-17.05Q61.89-15.8 60.84-14.55 59.79-13.3 58.19-12.25 56.59-11.2 54.94-10.45L54.94-10.45Q54.79-9.25 54.79-8.05L54.79-8.05Q54.79-6.05 55.29-4.55 55.79-3.05 56.99-3.05L56.99-3.05Q58.04-3.05 59.02-3.8 59.99-4.55 60.84-5.7 61.69-6.85 62.37-8.03 63.04-9.2 63.39-10L63.39-10Q63.49-10.3 63.84-10.3L63.84-10.3Q64.04-10.3 64.04-9.88 64.04-9.45 63.44-8.15L63.44-8.15Q62.84-6.95 62.22-5.88 61.59-4.8 60.99-4L60.99-4Q60.14-2.9 58.92-1.85 57.69-0.8 56.09-0.8ZM55.09-11.85L55.09-11.85Q56.84-12.8 58.22-14.13 59.59-15.45 59.59-17L59.59-17Q59.59-17.55 58.77-18.13 57.94-18.7 56.84-19.1L56.84-19.1Q56.24-17.5 55.82-15.7 55.39-13.9 55.09-11.85ZM67.19-2.4L67.19-2.4Q66.44-2.4 65.52-2.63 64.59-2.85 63.92-3.23 63.24-3.6 63.24-3.95L63.24-3.95Q63.24-4.75 64.74-4.75L64.74-4.75Q65.59-4.75 66.74-5.1 67.89-5.45 68.87-5.88 69.84-6.3 70.14-6.5L70.14-6.5Q69.94-6.8 69.19-7.43 68.44-8.05 67.54-8.95 66.64-9.85 65.97-10.98 65.29-12.1 65.29-13.45L65.29-13.45Q65.29-14.85 66.04-16.07 66.79-17.3 67.92-18.32 69.04-19.35 70.22-20.13 71.39-20.9 72.24-21.4L72.24-21.4Q72.59-21.6 72.99-21.6L72.99-21.6Q73.79-21.6 74.52-21.05 75.24-20.5 75.24-20L75.24-20Q75.24-19.95 75.14-19.75L75.14-19.75Q74.74-19.3 74.27-18.35 73.79-17.4 73.44-16.38 73.09-15.35 73.09-14.5L73.09-14.5Q73.09-13.55 72.69-13.55L72.69-13.55Q72.49-13.55 72.39-13.95 72.29-14.35 72.29-14.7L72.29-14.7Q72.29-15.7 72.62-16.85 72.94-18 73.04-18.5L73.04-18.5Q72.44-18.5 71.42-17.73 70.39-16.95 69.34-15.83 68.29-14.7 67.56-13.58 66.84-12.45 66.84-11.75L66.84-11.75Q66.84-10.8 67.49-10.03 68.14-9.25 69.12-8.6 70.09-7.95 70.94-7.2L70.94-7.2Q71.44-7.4 72.49-7.93 73.54-8.45 74.72-9.03 75.89-9.6 76.81-10 77.74-10.4 78.04-10.4L78.04-10.4Q78.14-10.4 78.14-10.35L78.14-10.35Q78.14-10 77.39-9.45 76.64-8.9 75.54-8.3 74.44-7.7 73.37-7.15 72.29-6.6 71.69-6.3L71.69-6.3Q71.84-5.85 71.84-5.4L71.84-5.4Q71.84-4.35 71.12-3.7 70.39-3.05 69.31-2.73 68.24-2.4 67.19-2.4ZM80.69 2.1L80.69 2.1Q79.84 2.1 79.31 1.05 78.79 0 78.54-1.63 78.29-3.25 78.19-5.13 78.09-7 78.09-8.65L78.09-8.65Q78.09-12 78.36-15.55 78.64-19.1 79.09-22.43 79.54-25.75 80.04-28.5 80.54-31.25 80.96-33.13 81.39-35 81.64-35.6L81.64-35.6Q81.99-36.45 82.21-37.05 82.44-37.65 82.94-37.65L82.94-37.65Q83.74-37.65 84.51-37 85.29-36.35 85.29-35.8L85.29-35.8 85.29-35.7Q85.59-36.1 86.14-36.1L86.14-36.1Q86.94-36.1 87.41-35.3 87.89-34.5 88.11-33.48 88.34-32.45 88.34-31.8L88.34-31.8Q88.34-29.85 87.54-27.48 86.74-25.1 85.49-22.68 84.24-20.25 82.84-18.03 81.44-15.8 80.24-14.1L80.24-14.1Q80.04-12.1 79.89-10.05 79.74-8 79.74-5.95L79.74-5.95Q79.74-4.85 79.81-3.85 79.89-2.85 79.99-1.95L79.99-1.95Q80.24-3.5 80.69-5.45 81.14-7.4 81.64-9.33 82.14-11.25 82.61-12.8 83.09-14.35 83.39-15.05L83.39-15.05Q83.89-16.25 84.71-16.75 85.54-17.25 86.29-17.25L86.29-17.25Q86.59-17.25 86.79-16.4 86.99-15.55 87.11-14.25 87.24-12.95 87.34-11.58 87.44-10.2 87.49-9.2L87.49-9.2Q87.59-7.4 87.94-6.65 88.29-5.9 88.69-5.75 89.09-5.6 89.34-5.55L89.34-5.55Q89.79-5.55 90.36-6.38 90.94-7.2 91.51-8.3 92.09-9.4 92.59-10.23 93.09-11.05 93.39-11.05L93.39-11.05Q93.54-11.05 93.54-10.8L93.54-10.8Q93.54-10.6 93.39-10.15L93.39-10.15Q91.79-6.35 90.59-4.45 89.39-2.55 88.04-2.55L88.04-2.55Q86.94-2.55 86.44-3.5L86.44-3.5Q85.69-4.8 85.39-6.38 85.09-7.95 84.91-9.6 84.74-11.25 84.34-12.7L84.34-12.7Q84.29-13 84.09-13L84.09-13Q83.94-13 83.81-12.7 83.69-12.4 83.49-11.95L83.49-11.95Q83.34-11.6 82.91-10.13 82.49-8.65 81.99-6.58 81.49-4.5 81.14-2.23 80.79 0.05 80.79 2L80.79 2Q80.79 2.1 80.69 2.1ZM80.49-15.9L80.49-15.9Q81.99-18.35 83.46-21.13 84.94-23.9 85.94-26.6 86.94-29.3 86.94-31.5L86.94-31.5Q86.94-32.65 86.64-33.58 86.34-34.5 85.54-35.15L85.54-35.15Q85.49-35.25 85.39-35.3 85.29-35.35 85.19-35.4L85.19-35.4Q83.84-31.4 82.54-26.38 81.24-21.35 80.49-15.9ZM98.28 4.5L98.28 4.5Q98.03 4.5 98.03 4.35L98.03 4.35Q98.03 4.25 98.18 4.1L98.18 4.1Q100.23 1.9 102.51-0.88 104.78-3.65 107.13-6.7L107.13-6.7Q105.08-7.35 103.73-8.2 102.38-9.05 102.38-10.3L102.38-10.3Q102.38-10.85 102.81-10.93 103.23-11 103.73-11L103.73-11Q105.03-11 106.46-10.6 107.88-10.2 109.33-9.65L109.33-9.65Q113.53-15.3 117.18-20.85L117.18-20.85Q116.58-25.7 116.33-29.8 116.08-33.9 116.08-36.15L116.08-36.15Q116.08-36.75 116.08-37.2 116.08-37.65 116.13-37.9L116.13-37.9Q116.28-39.1 116.38-39.85 116.48-40.6 117.38-40.6L117.38-40.6Q117.88-40.6 118.51-40.5 119.13-40.4 119.63-40.15L119.63-40.15Q119.68-40.2 119.83-40.2L119.83-40.2Q119.88-40.2 119.91-40.18 119.93-40.15 119.98-40.15L119.98-40.15Q121.53-39.4 122.58-37.93 123.63-36.45 123.63-34L123.63-34Q123.63-32.1 122.83-29.55 122.03-27 120.23-23.65L120.23-23.65Q120.23-19.55 120.53-15.6 120.83-11.65 121.43-8.3L121.43-8.3Q121.53-7.6 121.68-6.95 121.83-6.3 121.93-5.7L121.93-5.7Q122.93-5.8 124.31-6.05 125.68-6.3 127.03-6.78 128.38-7.25 129.31-7.95 130.23-8.65 130.23-9.55L130.23-9.55Q130.23-9.8 130.38-9.8L130.38-9.8Q130.53-9.8 130.73-9.43 130.93-9.05 130.93-8.45L130.93-8.45Q130.93-6.15 124.53-5.2L124.53-5.2Q123.88-5.1 123.23-4.85 122.58-4.6 122.28-4.2L122.28-4.2Q122.98-1.6 123.68-0.15 124.38 1.3 125.03 2.45L125.03 2.45Q125.03 2.6 124.73 2.6L124.73 2.6Q124.38 2.6 123.78 2.3 123.18 2 122.78 1.35L122.78 1.35Q122.43 0.65 122.08-0.08 121.73-0.8 121.38-1.6L121.38-1.6Q120.08-3.5 119.16-4.23 118.23-4.95 117.98-5L117.98-5Q118.08-5 116.66-5.1 115.23-5.2 113.06-5.5 110.88-5.8 108.68-6.3L108.68-6.3Q105.18-1.5 102.46 1.5 99.73 4.5 98.28 4.5ZM120.23-25.95L120.23-25.95Q121.63-28.6 122.21-30.5 122.78-32.4 122.78-33.8L122.78-33.8Q122.78-35.3 122.21-36.3 121.63-37.3 120.78-37.95L120.78-37.95Q120.58-35.2 120.41-32.15 120.23-29.1 120.23-25.95ZM120.03-5.8L120.03-5.8Q119.18-8.9 118.53-12.3 117.88-15.7 117.43-19.05L117.43-19.05Q115.68-16.4 113.98-13.9 112.28-11.4 110.68-9.1L110.68-9.1Q112.98-8.15 115.36-7.15 117.73-6.15 120.03-5.8ZM133.23 3.1L133.23 3.1Q132.73 3.1 131.86 2.33 130.98 1.55 130.63 0.3L130.63 0.3Q130.43-0.55 130.33-2 130.23-3.45 130.23-5.25L130.23-5.25Q130.23-8.25 130.36-11.7 130.48-15.15 130.48-17.9L130.48-17.9Q130.48-18.8 130.46-19.6 130.43-20.4 130.38-21L130.38-21Q130.28-21.1 129.81-21.18 129.33-21.25 128.91-21.33 128.48-21.4 128.48-21.4L128.48-21.4Q128.48-21.5 129.26-21.88 130.03-22.25 131.48-22.25L131.48-22.25Q132.98-22.25 133.46-21.63 133.93-21 133.93-20.55L133.93-20.55Q133.93-20.45 133.93-20.3 133.93-20.15 133.88-20.05L133.88-20.05Q133.33-17.4 132.83-13.83 132.33-10.25 132.33-6.3L132.33-6.3Q132.33-5.35 132.36-4.63 132.38-3.9 132.38-3.35L132.38-3.35 132.38-2.9Q132.68-5.7 133.43-8.22 134.18-10.75 134.93-13.75L134.93-13.75Q135.53-16.35 135.96-17.78 136.38-19.2 136.86-19.78 137.33-20.35 137.98-20.35L137.98-20.35Q138.88-20.35 139.23-19.6 139.58-18.85 139.68-17.55 139.78-16.25 139.88-14.58 139.98-12.9 140.38-11L140.38-11Q140.98-8.15 141.78-6.85 142.58-5.55 143.13-5.55L143.13-5.55Q143.78-5.55 144.43-6.38 145.08-7.2 145.68-8.3 146.28-9.4 146.76-10.23 147.23-11.05 147.53-11.05L147.53-11.05Q147.68-11.05 147.68-10.8L147.68-10.8Q147.68-10.6 147.53-10.15L147.53-10.15Q146.28-7.35 145.43-5.83 144.58-4.3 143.08-4.3L143.08-4.3Q141.93-4.3 140.78-5.3L140.78-5.3Q140.18-5.8 139.61-6.93 139.03-8.05 138.53-9.4 138.03-10.75 137.61-11.98 137.18-13.2 136.88-14 136.58-14.8 136.48-14.8L136.48-14.8Q136.38-14.8 136.16-14.6 135.93-14.4 135.83-13.9L135.83-13.9Q134.98-10.8 134.46-7.78 133.93-4.75 133.68-2.33 133.43 0.1 133.43 1.4L133.43 1.4Q133.43 2.05 133.51 2.33 133.58 2.6 133.58 2.75L133.58 2.75Q133.58 3.1 133.23 3.1ZM165.78 4.85L165.78 4.85Q164.03 4.85 162.68 2.7L162.68 2.7Q161.08 0.2 160.13-3.2 159.18-6.6 158.68-10.55L158.68-10.55Q157.83-9.2 156.68-7.7 155.53-6.2 154.13-4.88 152.73-3.55 151.23-2.73 149.73-1.9 148.18-1.9L148.18-1.9Q146.73-1.9 145.9-2.4 145.08-2.9 144.7-3.58 144.33-4.25 144.25-4.85 144.18-5.45 144.18-5.7L144.18-5.7Q144.18-7.1 145.2-8.75 146.23-10.4 148.1-11.88 149.98-13.35 152.55-14.3 155.13-15.25 158.18-15.25L158.18-15.25 158.23-15.25Q158.13-17.1 158.08-19 158.03-20.9 158.03-22.85L158.03-22.85Q158.03-25.5 158.18-28.1 158.33-30.7 158.7-32.83 159.08-34.95 159.73-36.15L159.73-36.15Q160.03-36.65 160.63-36.65L160.63-36.65Q161.93-36.65 162.98-35.68 164.03-34.7 164.68-33.35 165.33-32 165.33-30.75L165.33-30.75Q165.33-27.1 164.03-23.2 162.73-19.3 160.98-15L160.98-15 160.98-14.85 161.68-14.6Q162.68-14.1 163.35-13.38 164.03-12.65 164.03-12.1L164.03-12.1Q164.03-11.9 163.88-11.9L163.88-11.9Q163.73-11.9 163.58-12.15L163.58-12.15Q162.33-13.25 161.08-13.55L161.08-13.55Q161.48-9.35 162.38-5.83 163.28-2.3 164.73 0.3L164.73 0.3Q165.58 1.85 166.13 2.43 166.68 3 167.08 3L167.08 3Q167.48 3 167.8 2.53 168.13 2.05 168.33 2.05L168.33 2.05Q168.48 2.05 168.48 2.35L168.48 2.35 168.48 2.55Q168.38 2.8 168.08 3.35 167.78 3.9 167.23 4.38 166.68 4.85 165.78 4.85ZM160.83-16.8L160.83-16.8Q161.88-19.5 162.53-21.65 163.18-23.8 163.68-26.3L163.68-26.3Q163.83-27.1 163.93-27.98 164.03-28.85 164.03-29.65L164.03-29.65Q164.03-31.1 163.75-32.2 163.48-33.3 162.88-33.5L162.88-33.5Q161.98-32.75 161.5-31.03 161.03-29.3 160.85-27.08 160.68-24.85 160.68-22.6L160.68-22.6Q160.68-19.6 160.83-16.8ZM147.63-3.1L147.63-3.1Q148.88-3.1 150.4-3.93 151.93-4.75 153.45-6.05 154.98-7.35 156.3-8.88 157.63-10.4 158.53-11.8L158.53-11.8 158.33-13.9Q157.03-13.85 155.4-13.15 153.78-12.45 152.1-11.4 150.43-10.35 149.03-9.13 147.63-7.9 146.75-6.73 145.88-5.55 145.88-4.6L145.88-4.6Q145.88-3.7 146.83-3.2L146.83-3.2Q147.03-3.15 147.23-3.13 147.43-3.1 147.63-3.1ZM173.28-0.8L173.28-0.8Q171.58-0.8 170.65-1.9 169.73-3 169.4-4.73 169.08-6.45 169.08-8.2L169.08-8.2Q169.08-9.4 169.18-10.48 169.28-11.55 169.38-12.35L169.38-12.35Q169.63-14.4 170.03-16.3 170.43-18.2 170.8-19.55 171.18-20.9 171.28-21.3L171.28-21.3Q171.48-22 172.03-22L172.03-22Q172.58-22 173.28-21.28 173.98-20.55 174.28-20.1L174.28-20.1Q175.43-19.75 176.53-19.28 177.63-18.8 178.35-18.25 179.08-17.7 179.08-17.05L179.08-17.05Q179.08-15.8 178.03-14.55 176.98-13.3 175.38-12.25 173.78-11.2 172.13-10.45L172.13-10.45Q171.98-9.25 171.98-8.05L171.98-8.05Q171.98-6.05 172.48-4.55 172.98-3.05 174.18-3.05L174.18-3.05Q175.23-3.05 176.2-3.8 177.18-4.55 178.03-5.7 178.88-6.85 179.55-8.03 180.23-9.2 180.58-10L180.58-10Q180.68-10.3 181.03-10.3L181.03-10.3Q181.23-10.3 181.23-9.88 181.23-9.45 180.63-8.15L180.63-8.15Q180.03-6.95 179.4-5.88 178.78-4.8 178.18-4L178.18-4Q177.33-2.9 176.1-1.85 174.88-0.8 173.28-0.8ZM172.28-11.85L172.28-11.85Q174.03-12.8 175.4-14.13 176.78-15.45 176.78-17L176.78-17Q176.78-17.55 175.95-18.13 175.13-18.7 174.03-19.1L174.03-19.1Q173.43-17.5 173-15.7 172.58-13.9 172.28-11.85Z" opacity="1" transform="matrix(1,0,0,1,0,0)" fill="#ffffff" class="wordmark-text-0" data-fill-palette-color="primary" id="text-0"/></svg></g></svg></g></svg></g></svg></g><g/></svg>